# xmcd CD database file
# Copyright (C) 1995 Ti Kan
#
# Track frame offsets:
#	150
#	12137
#	24157
#	34600
#	45695
#	56482
#	66687
#	78447
#
# Disc length: 1184 seconds
#
# Revision: 1
# Processed by: cddbd v1.4b41PL1 Copyright (c) Steve Scherf et al.
# Submitted via: NotifyCDPlayer(CDDB) 1.07
#
DISCID=5d049e08
DTITLE=Robert Johnson - Delta Blues - The Alternative Takes
DYEAR=1900
DGENRE=
TTITLE0=Crossroad Blues
TTITLE1=Come On In My Kitchen
TTITLE2=Rambling On My Mind
TTITLE3=Drunken Hearted Man
TTITLE4=Stop Breakin' Down Blues
TTITLE5=Little Queen Of Spades
TTITLE6=Phonograph Blues
TTITLE7=Love In Vain
EXTD=
EXTT0=
EXTT1=
EXTT2=
EXTT3=
EXTT4=
EXTT5=
EXTT6=
EXTT7=
PLAYORDER=
